<svg width="50" height="100" viewBox="0 0 50 100" fill="none" xmlns="http://www.w3.org/2000/svg" xmlns:xlink="http://www.w3.org/1999/xlink">
<path d="M44.904,20.14C47.705,18.965 48.878,15.622 47.614,12.912L43.187,3.697C41.922,1.077 38.85,-0.098 36.14,1.077C28.55,4.329 22.044,8.576 16.714,13.635C10.299,19.779 5.872,26.736 3.522,34.416C1.173,42.005 -0.001,52.577 -0.001,66.129L-0.001,93.867C-0.001,96.849 2.439,99.288 5.42,99.288L40.928,99.288C43.91,99.288 46.349,96.849 46.349,93.867L46.349,58.359C46.349,55.377 43.91,52.938 40.928,52.938L23.852,52.938C24.033,43.812 26.202,36.494 30.177,30.982C33.429,26.555 38.308,22.941 44.904,20.14Z" transform="rotate(-360 24.06 49.954)" fill="#4AFFA8"/>
</svg>
