<svg width="426" height="24" viewBox="0 0 426 24" fill="none" xmlns="http://www.w3.org/2000/svg">
<path d="M167.008 18.08C166.197 18.08 165.467 17.8987 164.816 17.536C164.176 17.1627 163.669 16.656 163.296 16.016C162.923 15.3653 162.736 14.624 162.736 13.792C162.736 12.9493 162.923 12.208 163.296 11.568C163.669 10.928 164.176 10.4267 164.816 10.064C165.456 9.70133 166.187 9.52 167.008 9.52C167.84 9.52 168.576 9.70133 169.216 10.064C169.867 10.4267 170.373 10.928 170.736 11.568C171.109 12.208 171.296 12.9493 171.296 13.792C171.296 14.624 171.109 15.3653 170.736 16.016C170.373 16.656 169.867 17.1627 169.216 17.536C168.565 17.8987 167.829 18.08 167.008 18.08ZM167.008 17.072C167.616 17.072 168.155 16.9387 168.624 16.672C169.093 16.3947 169.461 16.0107 169.728 15.52C170.005 15.0187 170.144 14.4427 170.144 13.792C170.144 13.1307 170.005 12.5547 169.728 12.064C169.461 11.5733 169.093 11.1947 168.624 10.928C168.155 10.6507 167.621 10.512 167.024 10.512C166.427 10.512 165.893 10.6507 165.424 10.928C164.955 11.1947 164.581 11.5733 164.304 12.064C164.027 12.5547 163.888 13.1307 163.888 13.792C163.888 14.4427 164.027 15.0187 164.304 15.52C164.581 16.0107 164.955 16.3947 165.424 16.672C165.893 16.9387 166.421 17.072 167.008 17.072ZM173.615 18V9.6H174.703V11.888L174.591 11.488C174.826 10.848 175.221 10.3627 175.775 10.032C176.33 9.69067 177.018 9.52 177.839 9.52V10.624C177.797 10.624 177.754 10.624 177.711 10.624C177.669 10.6133 177.626 10.608 177.583 10.608C176.698 10.608 176.005 10.88 175.503 11.424C175.002 11.9573 174.751 12.72 174.751 13.712V18H173.615ZM184.225 18V6.128H185.361V18H184.225ZM191.946 18.08C191.135 18.08 190.404 17.8987 189.754 17.536C189.114 17.1627 188.607 16.656 188.234 16.016C187.86 15.3653 187.674 14.624 187.674 13.792C187.674 12.9493 187.86 12.208 188.234 11.568C188.607 10.928 189.114 10.4267 189.754 10.064C190.394 9.70133 191.124 9.52 191.946 9.52C192.778 9.52 193.514 9.70133 194.154 10.064C194.804 10.4267 195.311 10.928 195.674 11.568C196.047 12.208 196.234 12.9493 196.234 13.792C196.234 14.624 196.047 15.3653 195.674 16.016C195.311 16.656 194.804 17.1627 194.154 17.536C193.503 17.8987 192.767 18.08 191.946 18.08ZM191.946 17.072C192.554 17.072 193.092 16.9387 193.562 16.672C194.031 16.3947 194.399 16.0107 194.666 15.52C194.943 15.0187 195.082 14.4427 195.082 13.792C195.082 13.1307 194.943 12.5547 194.666 12.064C194.399 11.5733 194.031 11.1947 193.562 10.928C193.092 10.6507 192.559 10.512 191.962 10.512C191.364 10.512 190.831 10.6507 190.362 10.928C189.892 11.1947 189.519 11.5733 189.242 12.064C188.964 12.5547 188.826 13.1307 188.826 13.792C188.826 14.4427 188.964 15.0187 189.242 15.52C189.519 16.0107 189.892 16.3947 190.362 16.672C190.831 16.9387 191.359 17.072 191.946 17.072ZM202.137 21.184C201.369 21.184 200.633 21.072 199.929 20.848C199.225 20.624 198.654 20.304 198.217 19.888L198.793 19.024C199.187 19.376 199.673 19.6533 200.249 19.856C200.835 20.0693 201.454 20.176 202.105 20.176C203.171 20.176 203.955 19.9253 204.457 19.424C204.958 18.9333 205.209 18.1653 205.209 17.12V15.024L205.369 13.584L205.257 12.144V9.6H206.345V16.976C206.345 18.4267 205.987 19.488 205.273 20.16C204.569 20.8427 203.523 21.184 202.137 21.184ZM201.929 17.68C201.129 17.68 200.409 17.5093 199.769 17.168C199.129 16.816 198.622 16.3307 198.249 15.712C197.886 15.0933 197.705 14.384 197.705 13.584C197.705 12.784 197.886 12.08 198.249 11.472C198.622 10.8533 199.129 10.3733 199.769 10.032C200.409 9.69067 201.129 9.52 201.929 9.52C202.675 9.52 203.347 9.67467 203.945 9.984C204.542 10.2933 205.017 10.752 205.369 11.36C205.721 11.968 205.897 12.7093 205.897 13.584C205.897 14.4587 205.721 15.2 205.369 15.808C205.017 16.416 204.542 16.88 203.945 17.2C203.347 17.52 202.675 17.68 201.929 17.68ZM202.041 16.672C202.659 16.672 203.209 16.544 203.689 16.288C204.169 16.0213 204.547 15.6587 204.825 15.2C205.102 14.7307 205.241 14.192 205.241 13.584C205.241 12.976 205.102 12.4427 204.825 11.984C204.547 11.5253 204.169 11.168 203.689 10.912C203.209 10.6453 202.659 10.512 202.041 10.512C201.433 10.512 200.883 10.6453 200.393 10.912C199.913 11.168 199.534 11.5253 199.257 11.984C198.99 12.4427 198.857 12.976 198.857 13.584C198.857 14.192 198.99 14.7307 199.257 15.2C199.534 15.6587 199.913 16.0213 200.393 16.288C200.883 16.544 201.433 16.672 202.041 16.672ZM209.506 18V9.6H210.642V18H209.506ZM210.082 7.744C209.847 7.744 209.65 7.664 209.49 7.504C209.33 7.344 209.25 7.152 209.25 6.928C209.25 6.704 209.33 6.51733 209.49 6.368C209.65 6.208 209.847 6.128 210.082 6.128C210.317 6.128 210.514 6.20267 210.674 6.352C210.834 6.50133 210.914 6.688 210.914 6.912C210.914 7.14667 210.834 7.344 210.674 7.504C210.525 7.664 210.327 7.744 210.082 7.744ZM218.091 9.52C218.773 9.52 219.371 9.65333 219.883 9.92C220.405 10.176 220.811 10.5707 221.099 11.104C221.397 11.6373 221.547 12.3093 221.547 13.12V18H220.411V13.232C220.411 12.3467 220.187 11.68 219.739 11.232C219.301 10.7733 218.683 10.544 217.883 10.544C217.285 10.544 216.763 10.6667 216.315 10.912C215.877 11.1467 215.536 11.4933 215.291 11.952C215.056 12.4 214.939 12.944 214.939 13.584V18H213.803V9.6H214.891V11.904L214.715 11.472C214.981 10.864 215.408 10.3893 215.995 10.048C216.581 9.696 217.28 9.52 218.091 9.52ZM230.515 18L227.347 9.6H228.435L231.315 17.392H230.819L233.779 9.6H234.755L237.683 17.392H237.187L240.115 9.6H241.155L237.971 18H236.899L234.083 10.672H234.419L231.587 18H230.515ZM242.865 18V9.6H244.001V18H242.865ZM243.441 7.744C243.207 7.744 243.009 7.664 242.849 7.504C242.689 7.344 242.609 7.152 242.609 6.928C242.609 6.704 242.689 6.51733 242.849 6.368C243.009 6.208 243.207 6.128 243.441 6.128C243.676 6.128 243.873 6.20267 244.033 6.352C244.193 6.50133 244.273 6.688 244.273 6.912C244.273 7.14667 244.193 7.344 244.033 7.504C243.884 7.664 243.687 7.744 243.441 7.744ZM249.818 18.08C249.029 18.08 248.421 17.8667 247.994 17.44C247.567 17.0133 247.354 16.4107 247.354 15.632V7.744H248.49V15.568C248.49 16.0587 248.613 16.4373 248.858 16.704C249.114 16.9707 249.477 17.104 249.946 17.104C250.447 17.104 250.863 16.96 251.194 16.672L251.594 17.488C251.37 17.6907 251.098 17.84 250.778 17.936C250.469 18.032 250.149 18.08 249.818 18.08ZM245.85 10.544V9.6H251.05V10.544H245.85ZM257.95 9.52C258.633 9.52 259.23 9.65333 259.742 9.92C260.265 10.176 260.67 10.5707 260.958 11.104C261.257 11.6373 261.406 12.3093 261.406 13.12V18H260.27V13.232C260.27 12.3467 260.046 11.68 259.598 11.232C259.161 10.7733 258.542 10.544 257.742 10.544C257.145 10.544 256.622 10.6667 256.174 10.912C255.737 11.1467 255.395 11.4933 255.15 11.952C254.915 12.4 254.798 12.944 254.798 13.584V18H253.662V6.128H254.798V11.904L254.574 11.472C254.841 10.864 255.267 10.3893 255.854 10.048C256.441 9.696 257.139 9.52 257.95 9.52Z" fill="black"/>
<line y1="14.7" x2="146" y2="14.7" stroke="black" stroke-width="0.6" stroke-dasharray="12 12"/>
<line x1="280" y1="14.7" x2="426" y2="14.7" stroke="black" stroke-width="0.6" stroke-dasharray="12 12"/>
</svg>
