<svg width="426" height="24" viewBox="0 0 426 24" fill="none" xmlns="http://www.w3.org/2000/svg">
<path d="M159.008 18.08C158.197 18.08 157.467 17.8987 156.816 17.536C156.176 17.1627 155.669 16.656 155.296 16.016C154.923 15.3653 154.736 14.624 154.736 13.792C154.736 12.9493 154.923 12.208 155.296 11.568C155.669 10.928 156.176 10.4267 156.816 10.064C157.456 9.70133 158.187 9.52 159.008 9.52C159.84 9.52 160.576 9.70133 161.216 10.064C161.867 10.4267 162.373 10.928 162.736 11.568C163.109 12.208 163.296 12.9493 163.296 13.792C163.296 14.624 163.109 15.3653 162.736 16.016C162.373 16.656 161.867 17.1627 161.216 17.536C160.565 17.8987 159.829 18.08 159.008 18.08ZM159.008 17.072C159.616 17.072 160.155 16.9387 160.624 16.672C161.093 16.3947 161.461 16.0107 161.728 15.52C162.005 15.0187 162.144 14.4427 162.144 13.792C162.144 13.1307 162.005 12.5547 161.728 12.064C161.461 11.5733 161.093 11.1947 160.624 10.928C160.155 10.6507 159.621 10.512 159.024 10.512C158.427 10.512 157.893 10.6507 157.424 10.928C156.955 11.1947 156.581 11.5733 156.304 12.064C156.027 12.5547 155.888 13.1307 155.888 13.792C155.888 14.4427 156.027 15.0187 156.304 15.52C156.581 16.0107 156.955 16.3947 157.424 16.672C157.893 16.9387 158.421 17.072 159.008 17.072ZM165.615 18V9.6H166.703V11.888L166.591 11.488C166.826 10.848 167.221 10.3627 167.775 10.032C168.33 9.69067 169.018 9.52 169.839 9.52V10.624C169.797 10.624 169.754 10.624 169.711 10.624C169.669 10.6133 169.626 10.608 169.583 10.608C168.698 10.608 168.005 10.88 167.503 11.424C167.002 11.9573 166.751 12.72 166.751 13.712V18H165.615ZM179.553 18.096C178.721 18.096 177.921 17.9627 177.153 17.696C176.395 17.4187 175.809 17.0667 175.393 16.64L175.857 15.728C176.251 16.112 176.779 16.4373 177.441 16.704C178.113 16.96 178.817 17.088 179.553 17.088C180.257 17.088 180.827 17.0027 181.265 16.832C181.713 16.6507 182.038 16.4107 182.241 16.112C182.454 15.8133 182.561 15.4827 182.561 15.12C182.561 14.6827 182.433 14.3307 182.177 14.064C181.931 13.7973 181.606 13.5893 181.201 13.44C180.795 13.28 180.347 13.1413 179.857 13.024C179.366 12.9067 178.875 12.784 178.385 12.656C177.894 12.5173 177.441 12.336 177.025 12.112C176.619 11.888 176.289 11.5947 176.033 11.232C175.787 10.8587 175.665 10.3733 175.665 9.776C175.665 9.22133 175.809 8.71467 176.097 8.256C176.395 7.78667 176.849 7.41333 177.457 7.136C178.065 6.848 178.843 6.704 179.793 6.704C180.422 6.704 181.046 6.79467 181.665 6.976C182.283 7.14667 182.817 7.38667 183.265 7.696L182.865 8.64C182.385 8.32 181.873 8.08533 181.329 7.936C180.795 7.78667 180.278 7.712 179.777 7.712C179.105 7.712 178.55 7.80267 178.113 7.984C177.675 8.16533 177.35 8.41067 177.137 8.72C176.934 9.01867 176.833 9.36 176.833 9.744C176.833 10.1813 176.955 10.5333 177.201 10.8C177.457 11.0667 177.787 11.2747 178.193 11.424C178.609 11.5733 179.062 11.7067 179.553 11.824C180.043 11.9413 180.529 12.0693 181.009 12.208C181.499 12.3467 181.947 12.528 182.353 12.752C182.769 12.9653 183.099 13.2533 183.345 13.616C183.601 13.9787 183.729 14.4533 183.729 15.04C183.729 15.584 183.579 16.0907 183.281 16.56C182.982 17.0187 182.523 17.392 181.905 17.68C181.297 17.9573 180.513 18.096 179.553 18.096ZM186.068 18V9.6H187.204V18H186.068ZM186.644 7.744C186.41 7.744 186.212 7.664 186.052 7.504C185.892 7.344 185.812 7.152 185.812 6.928C185.812 6.704 185.892 6.51733 186.052 6.368C186.212 6.208 186.41 6.128 186.644 6.128C186.879 6.128 187.076 6.20267 187.236 6.352C187.396 6.50133 187.476 6.688 187.476 6.912C187.476 7.14667 187.396 7.344 187.236 7.504C187.087 7.664 186.89 7.744 186.644 7.744ZM193.949 21.184C193.181 21.184 192.445 21.072 191.741 20.848C191.037 20.624 190.467 20.304 190.029 19.888L190.605 19.024C191 19.376 191.485 19.6533 192.061 19.856C192.648 20.0693 193.267 20.176 193.917 20.176C194.984 20.176 195.768 19.9253 196.269 19.424C196.771 18.9333 197.021 18.1653 197.021 17.12V15.024L197.181 13.584L197.069 12.144V9.6H198.157V16.976C198.157 18.4267 197.8 19.488 197.085 20.16C196.381 20.8427 195.336 21.184 193.949 21.184ZM193.741 17.68C192.941 17.68 192.221 17.5093 191.581 17.168C190.941 16.816 190.435 16.3307 190.061 15.712C189.699 15.0933 189.517 14.384 189.517 13.584C189.517 12.784 189.699 12.08 190.061 11.472C190.435 10.8533 190.941 10.3733 191.581 10.032C192.221 9.69067 192.941 9.52 193.741 9.52C194.488 9.52 195.16 9.67467 195.757 9.984C196.355 10.2933 196.829 10.752 197.181 11.36C197.533 11.968 197.709 12.7093 197.709 13.584C197.709 14.4587 197.533 15.2 197.181 15.808C196.829 16.416 196.355 16.88 195.757 17.2C195.16 17.52 194.488 17.68 193.741 17.68ZM193.853 16.672C194.472 16.672 195.021 16.544 195.501 16.288C195.981 16.0213 196.36 15.6587 196.637 15.2C196.915 14.7307 197.053 14.192 197.053 13.584C197.053 12.976 196.915 12.4427 196.637 11.984C196.36 11.5253 195.981 11.168 195.501 10.912C195.021 10.6453 194.472 10.512 193.853 10.512C193.245 10.512 192.696 10.6453 192.205 10.912C191.725 11.168 191.347 11.5253 191.069 11.984C190.803 12.4427 190.669 12.976 190.669 13.584C190.669 14.192 190.803 14.7307 191.069 15.2C191.347 15.6587 191.725 16.0213 192.205 16.288C192.696 16.544 193.245 16.672 193.853 16.672ZM205.606 9.52C206.289 9.52 206.886 9.65333 207.398 9.92C207.921 10.176 208.326 10.5707 208.614 11.104C208.913 11.6373 209.062 12.3093 209.062 13.12V18H207.926V13.232C207.926 12.3467 207.702 11.68 207.254 11.232C206.817 10.7733 206.198 10.544 205.398 10.544C204.801 10.544 204.278 10.6667 203.83 10.912C203.393 11.1467 203.052 11.4933 202.806 11.952C202.572 12.4 202.454 12.944 202.454 13.584V18H201.318V9.6H202.406V11.904L202.23 11.472C202.497 10.864 202.924 10.3893 203.51 10.048C204.097 9.696 204.796 9.52 205.606 9.52ZM215.603 18.08C214.888 18.08 214.264 17.9467 213.731 17.68C213.198 17.4133 212.782 17.0133 212.483 16.48C212.195 15.9467 212.051 15.28 212.051 14.48V9.6H213.187V14.352C213.187 15.248 213.406 15.9253 213.843 16.384C214.291 16.832 214.915 17.056 215.715 17.056C216.302 17.056 216.808 16.9387 217.235 16.704C217.672 16.4587 218.003 16.1067 218.227 15.648C218.462 15.1893 218.579 14.64 218.579 14V9.6H219.715V18H218.627V15.696L218.803 16.112C218.536 16.7307 218.12 17.216 217.555 17.568C217 17.9093 216.35 18.08 215.603 18.08ZM227.217 18.08C226.492 18.08 225.836 17.9147 225.249 17.584C224.662 17.2427 224.193 16.7573 223.841 16.128C223.5 15.488 223.329 14.7093 223.329 13.792C223.329 12.8747 223.5 12.1013 223.841 11.472C224.182 10.832 224.646 10.3467 225.233 10.016C225.82 9.68533 226.481 9.52 227.217 9.52C228.017 9.52 228.732 9.70133 229.361 10.064C230.001 10.416 230.502 10.9173 230.865 11.568C231.228 12.208 231.409 12.9493 231.409 13.792C231.409 14.6453 231.228 15.392 230.865 16.032C230.502 16.672 230.001 17.1733 229.361 17.536C228.732 17.8987 228.017 18.08 227.217 18.08ZM222.881 21.104V9.6H223.969V12.128L223.857 13.808L224.017 15.504V21.104H222.881ZM227.137 17.072C227.734 17.072 228.268 16.9387 228.737 16.672C229.206 16.3947 229.58 16.0107 229.857 15.52C230.134 15.0187 230.273 14.4427 230.273 13.792C230.273 13.1413 230.134 12.5707 229.857 12.08C229.58 11.5893 229.206 11.2053 228.737 10.928C228.268 10.6507 227.734 10.512 227.137 10.512C226.54 10.512 226.001 10.6507 225.521 10.928C225.052 11.2053 224.678 11.5893 224.401 12.08C224.134 12.5707 224.001 13.1413 224.001 13.792C224.001 14.4427 224.134 15.0187 224.401 15.52C224.678 16.0107 225.052 16.3947 225.521 16.672C226.001 16.9387 226.54 17.072 227.137 17.072ZM239.624 18L236.456 9.6H237.544L240.424 17.392H239.928L242.888 9.6H243.864L246.792 17.392H246.296L249.224 9.6H250.264L247.08 18H246.008L243.192 10.672H243.528L240.696 18H239.624ZM251.975 18V9.6H253.111V18H251.975ZM252.551 7.744C252.316 7.744 252.119 7.664 251.959 7.504C251.799 7.344 251.719 7.152 251.719 6.928C251.719 6.704 251.799 6.51733 251.959 6.368C252.119 6.208 252.316 6.128 252.551 6.128C252.785 6.128 252.983 6.20267 253.143 6.352C253.303 6.50133 253.383 6.688 253.383 6.912C253.383 7.14667 253.303 7.344 253.143 7.504C252.993 7.664 252.796 7.744 252.551 7.744ZM258.928 18.08C258.138 18.08 257.53 17.8667 257.104 17.44C256.677 17.0133 256.464 16.4107 256.464 15.632V7.744H257.6V15.568C257.6 16.0587 257.722 16.4373 257.968 16.704C258.224 16.9707 258.586 17.104 259.056 17.104C259.557 17.104 259.973 16.96 260.304 16.672L260.704 17.488C260.48 17.6907 260.208 17.84 259.888 17.936C259.578 18.032 259.258 18.08 258.928 18.08ZM254.96 10.544V9.6H260.16V10.544H254.96ZM267.06 9.52C267.742 9.52 268.34 9.65333 268.852 9.92C269.374 10.176 269.78 10.5707 270.068 11.104C270.366 11.6373 270.516 12.3093 270.516 13.12V18H269.38V13.232C269.38 12.3467 269.156 11.68 268.708 11.232C268.27 10.7733 267.652 10.544 266.852 10.544C266.254 10.544 265.732 10.6667 265.284 10.912C264.846 11.1467 264.505 11.4933 264.26 11.952C264.025 12.4 263.908 12.944 263.908 13.584V18H262.772V6.128H263.908V11.904L263.684 11.472C263.95 10.864 264.377 10.3893 264.964 10.048C265.55 9.696 266.249 9.52 267.06 9.52Z" fill="black"/>
<line y1="14.7" x2="141" y2="14.7" stroke="black" stroke-width="0.6" stroke-dasharray="12 12"/>
<line x1="286" y1="14.7" x2="426" y2="14.7" stroke="black" stroke-width="0.6" stroke-dasharray="12 12"/>
</svg>
