<svg width="322" height="96" viewBox="0 0 322 96" fill="none" xmlns="http://www.w3.org/2000/svg">
<path d="M0 14C0 9.02944 4.02944 5 9 5H160V64H9C4.02943 64 0 59.9706 0 55V14Z" fill="white"/>
<path d="M322 55C322 59.9706 317.971 64 313 64L162 64L162 4.99999L313 5C317.971 5 322 9.02944 322 14L322 55Z" fill="white"/>
<path d="M38.856 25.848C38.632 25.624 38.216 25.32 37.608 24.936C37.032 24.552 36.312 24.184 35.448 23.832C34.616 23.48 33.704 23.176 32.712 22.92C31.72 22.632 30.712 22.488 29.688 22.488C27.896 22.488 26.536 22.824 25.608 23.496C24.712 24.168 24.264 25.112 24.264 26.328C24.264 27.256 24.552 27.992 25.128 28.536C25.704 29.08 26.568 29.544 27.72 29.928C28.872 30.312 30.312 30.728 32.04 31.176C34.28 31.72 36.216 32.392 37.848 33.192C39.512 33.96 40.776 34.984 41.64 36.264C42.536 37.512 42.984 39.176 42.984 41.256C42.984 43.08 42.648 44.648 41.976 45.96C41.304 47.24 40.376 48.28 39.192 49.08C38.008 49.88 36.664 50.472 35.16 50.856C33.656 51.208 32.056 51.384 30.36 51.384C28.664 51.384 26.968 51.208 25.272 50.856C23.576 50.504 21.944 50.008 20.376 49.368C18.808 48.696 17.368 47.896 16.056 46.968L18.984 41.256C19.272 41.544 19.784 41.928 20.52 42.408C21.256 42.856 22.152 43.32 23.208 43.8C24.264 44.248 25.416 44.632 26.664 44.952C27.912 45.272 29.176 45.432 30.456 45.432C32.248 45.432 33.608 45.128 34.536 44.52C35.464 43.912 35.928 43.048 35.928 41.928C35.928 40.904 35.56 40.104 34.824 39.528C34.088 38.952 33.064 38.456 31.752 38.04C30.44 37.592 28.888 37.112 27.096 36.6C24.952 35.992 23.16 35.32 21.72 34.584C20.28 33.816 19.208 32.856 18.504 31.704C17.8 30.552 17.448 29.112 17.448 27.384C17.448 25.048 17.992 23.096 19.08 21.528C20.2 19.928 21.704 18.728 23.592 17.928C25.48 17.096 27.576 16.68 29.88 16.68C31.48 16.68 32.984 16.856 34.392 17.208C35.832 17.56 37.176 18.024 38.424 18.6C39.672 19.176 40.792 19.8 41.784 20.472L38.856 25.848ZM70.6478 51H64.2158V36.888C64.2158 34.936 63.8318 33.48 63.0638 32.52C62.3278 31.56 61.3038 31.08 59.9918 31.08C59.2238 31.08 58.4078 31.304 57.5438 31.752C56.6798 32.2 55.8958 32.824 55.1918 33.624C54.5198 34.392 54.0238 35.288 53.7038 36.312V51H47.2718V15.96H53.7038V30.504C54.6318 28.904 55.8958 27.656 57.4958 26.76C59.0958 25.864 60.8398 25.416 62.7278 25.416C64.3598 25.416 65.6878 25.704 66.7118 26.28C67.7358 26.824 68.5358 27.576 69.1118 28.536C69.6878 29.464 70.0878 30.52 70.3118 31.704C70.5358 32.856 70.6478 34.056 70.6478 35.304V51ZM87.8565 51.48C85.8085 51.48 83.9685 51.144 82.3365 50.472C80.7045 49.768 79.3125 48.808 78.1605 47.592C77.0405 46.376 76.1765 44.984 75.5685 43.416C74.9605 41.848 74.6565 40.2 74.6565 38.472C74.6565 36.712 74.9605 35.048 75.5685 33.48C76.1765 31.912 77.0405 30.52 78.1605 29.304C79.3125 28.088 80.7045 27.144 82.3365 26.472C83.9685 25.768 85.8085 25.416 87.8565 25.416C89.9045 25.416 91.7285 25.768 93.3285 26.472C94.9605 27.144 96.3525 28.088 97.5045 29.304C98.6565 30.52 99.5205 31.912 100.097 33.48C100.705 35.048 101.009 36.712 101.009 38.472C101.009 40.2 100.705 41.848 100.097 43.416C99.5205 44.984 98.6565 46.376 97.5045 47.592C96.3845 48.808 95.0085 49.768 93.3765 50.472C91.7445 51.144 89.9045 51.48 87.8565 51.48ZM81.2805 38.472C81.2805 39.944 81.5685 41.256 82.1445 42.408C82.7205 43.528 83.5045 44.408 84.4965 45.048C85.4885 45.688 86.6085 46.008 87.8565 46.008C89.0725 46.008 90.1765 45.688 91.1685 45.048C92.1605 44.376 92.9445 43.48 93.5205 42.36C94.1285 41.208 94.4325 39.896 94.4325 38.424C94.4325 36.984 94.1285 35.688 93.5205 34.536C92.9445 33.384 92.1605 32.488 91.1685 31.848C90.1765 31.208 89.0725 30.888 87.8565 30.888C86.6085 30.888 85.4885 31.224 84.4965 31.896C83.5045 32.536 82.7205 33.432 82.1445 34.584C81.5685 35.704 81.2805 37 81.2805 38.472ZM120.326 31.416C118.374 31.416 116.63 31.8 115.094 32.568C113.558 33.304 112.454 34.376 111.782 35.784V51H105.35V25.848H111.254V31.224C112.15 29.496 113.286 28.136 114.662 27.144C116.038 26.152 117.494 25.608 119.03 25.512C119.382 25.512 119.654 25.512 119.846 25.512C120.038 25.512 120.198 25.528 120.326 25.56V31.416ZM138.984 49.704C138.44 49.928 137.784 50.184 137.016 50.472C136.248 50.76 135.416 50.984 134.52 51.144C133.656 51.336 132.776 51.432 131.88 51.432C130.696 51.432 129.608 51.224 128.616 50.808C127.624 50.392 126.824 49.736 126.216 48.84C125.64 47.912 125.352 46.712 125.352 45.24V30.792H122.04V25.848H125.352V17.688H131.784V25.848H137.064V30.792H131.784V43.08C131.816 43.944 132.056 44.568 132.504 44.952C132.952 45.336 133.512 45.528 134.184 45.528C134.856 45.528 135.512 45.416 136.152 45.192C136.792 44.968 137.304 44.776 137.688 44.616L138.984 49.704Z" fill="#4046BA"/>
<path d="M185.552 51V16.92H192.176V45.192H209.552V51H185.552ZM212.959 51V25.848H219.391V51H212.959ZM212.959 22.344V15.96H219.391V22.344H212.959ZM248.57 51H242.138V36.888C242.138 34.872 241.786 33.4 241.082 32.472C240.378 31.544 239.402 31.08 238.154 31.08C237.29 31.08 236.41 31.304 235.514 31.752C234.65 32.2 233.866 32.824 233.162 33.624C232.458 34.392 231.946 35.288 231.626 36.312V51H225.194V25.848H231.002V30.504C231.642 29.416 232.458 28.504 233.45 27.768C234.442 27 235.578 26.424 236.858 26.04C238.17 25.624 239.546 25.416 240.986 25.416C242.554 25.416 243.834 25.704 244.826 26.28C245.85 26.824 246.618 27.576 247.13 28.536C247.674 29.464 248.042 30.52 248.234 31.704C248.458 32.888 248.57 34.088 248.57 35.304V51ZM271.346 51L264.002 40.152L260.594 43.512V51H254.162V15.96H260.594V37.176L270.722 25.896H277.538L268.178 36.552L278.21 51H271.346ZM290.051 51.48C287.907 51.48 285.859 51.128 283.907 50.424C281.955 49.72 280.275 48.68 278.867 47.304L281.171 43.128C282.675 44.344 284.147 45.24 285.587 45.816C287.059 46.392 288.467 46.68 289.811 46.68C291.059 46.68 292.051 46.456 292.787 46.008C293.555 45.56 293.939 44.888 293.939 43.992C293.939 43.384 293.731 42.92 293.315 42.6C292.899 42.248 292.291 41.944 291.491 41.688C290.723 41.432 289.779 41.144 288.659 40.824C286.803 40.216 285.251 39.624 284.003 39.048C282.755 38.472 281.811 37.752 281.171 36.888C280.563 35.992 280.259 34.856 280.259 33.48C280.259 31.816 280.675 30.392 281.507 29.208C282.371 27.992 283.555 27.048 285.059 26.376C286.595 25.704 288.387 25.368 290.435 25.368C292.227 25.368 293.923 25.656 295.523 26.232C297.123 26.776 298.579 27.672 299.891 28.92L297.299 33C296.019 32.008 294.803 31.288 293.651 30.84C292.499 30.36 291.331 30.12 290.147 30.12C289.475 30.12 288.835 30.2 288.227 30.36C287.651 30.52 287.171 30.792 286.787 31.176C286.435 31.528 286.259 32.04 286.259 32.712C286.259 33.32 286.419 33.8 286.739 34.152C287.091 34.472 287.603 34.76 288.275 35.016C288.979 35.272 289.827 35.56 290.819 35.88C292.835 36.456 294.531 37.048 295.907 37.656C297.315 38.264 298.371 39.016 299.075 39.912C299.779 40.776 300.131 41.976 300.131 43.512C300.131 46.008 299.219 47.96 297.395 49.368C295.571 50.776 293.123 51.48 290.051 51.48Z" fill="#353DBA"/>
<g clip-path="url(#clip0_635_22)">
<path d="M160.499 75.0071L155.576 79.9307C156.346 81.7468 156.46 83.7742 155.899 85.6655C155.339 87.5567 154.137 89.194 152.502 90.2968C150.866 91.3996 148.898 91.8992 146.935 91.7099C144.971 91.5207 143.134 90.6544 141.74 89.2595C140.345 87.8647 139.478 86.0281 139.289 84.0646C139.1 82.1011 139.6 80.1328 140.702 78.4973C141.805 76.8617 143.442 75.6606 145.334 75.0998C147.225 74.539 149.252 74.6535 151.068 75.4236L155.994 70.5L142.447 56.9552C142.052 56.5606 141.739 56.092 141.526 55.5762C141.312 55.0605 141.202 54.5077 141.202 53.9494C141.202 53.3912 141.312 52.8384 141.526 52.3226C141.739 51.8069 142.052 51.3383 142.447 50.9436L143.95 49.4412L169.93 75.4236C171.746 74.6535 173.773 74.539 175.665 75.0998C177.556 75.6606 179.193 76.8617 180.296 78.4973C181.399 80.1328 181.898 82.1011 181.709 84.0646C181.52 86.0281 180.654 87.8647 179.259 89.2595C177.864 90.6544 176.027 91.5207 174.064 91.7099C172.1 91.8992 170.132 91.3996 168.496 90.2968C166.861 89.194 165.66 87.5567 165.099 85.6655C164.538 83.7742 164.653 81.7468 165.423 79.9307L160.499 75.005L160.499 75.0071ZM151.999 83.25C151.999 82.1228 151.551 81.0418 150.754 80.2448C149.957 79.4478 148.876 79 147.749 79C146.622 79 145.541 79.4478 144.744 80.2448C143.947 81.0418 143.499 82.1228 143.499 83.25C143.499 84.3772 143.947 85.4582 144.744 86.2552C145.541 87.0522 146.622 87.5 147.749 87.5C148.876 87.5 149.957 87.0522 150.754 86.2552C151.551 85.4582 151.999 84.3772 151.999 83.25ZM177.499 83.25C177.499 82.1228 177.051 81.0418 176.254 80.2448C175.457 79.4478 174.376 79 173.249 79C172.122 79 171.041 79.4478 170.244 80.2448C169.447 81.0418 168.999 82.1228 168.999 83.25C168.999 84.3772 169.447 85.4582 170.244 86.2552C171.041 87.0522 172.122 87.5 173.249 87.5C174.376 87.5 175.457 87.0522 176.254 86.2552C177.051 85.4582 177.499 84.3772 177.499 83.25ZM163.502 62.9881L177.051 49.4412L178.553 50.9436C178.948 51.3383 179.261 51.8069 179.475 52.3226C179.689 52.8384 179.799 53.3912 179.799 53.9494C179.799 54.5077 179.689 55.0605 179.475 55.5762C179.261 56.092 178.948 56.5606 178.553 56.9552L168.011 67.4952L163.502 62.9881ZM158.374 62L158.374 57.75L162.624 57.75L162.624 62L158.374 62ZM158.374 53.5L158.374 49.25L162.624 49.25L162.624 53.5L158.374 53.5ZM158.374 83.25L158.374 79L162.624 79L162.624 83.25L158.374 83.25ZM158.374 91.75L158.374 87.5L162.624 87.5L162.624 91.75L158.374 91.75Z" fill="#131313"/>
<rect x="158" y="57" width="6" height="5" fill="#363DB9"/>
<rect x="158" y="41" width="6" height="5" fill="#363DB9"/>
<rect x="158" y="25" width="6" height="5" fill="#363DB9"/>
<rect x="158" y="9" width="6" height="5" fill="#363DB9"/>
<rect x="158" y="49" width="6" height="5" fill="#363DB9"/>
<rect x="158" y="33" width="6" height="5" fill="#363DB9"/>
<rect x="158" y="17" width="6" height="5" fill="#363DB9"/>
</g>
<defs>
<clipPath id="clip0_635_22">
<rect width="96" height="51" fill="white" transform="translate(136 96) rotate(-90)"/>
</clipPath>
</defs>
</svg>
