<svg width="102" height="470" viewBox="0 0 102 470" fill="none" xmlns="http://www.w3.org/2000/svg">
<path d="M0.287327 424.322L0.287326 405.878L34.0479 394.206L0.287325 382.391L0.287324 364.091L46.6901 381.67L79.1577 368.702L-5.69391e-06 339.739L-6.63869e-06 318.124L102 359.047L102 376.195L59.1887 394.206L102 412.074L102 429.221L0 470L-9.32188e-07 448.674L79.1577 419.567L46.6901 406.887L0.287327 424.322Z" fill="#F3F3F3"/>
<path d="M0.28732 272.629L0.287319 254.185L34.0479 242.513L0.287318 230.697L0.287318 212.397L46.6901 229.977L79.1577 217.008L-1.23246e-05 188.045L-1.32694e-05 166.431L102 207.354L102 224.501L59.1887 242.513L102 260.381L102 277.528L-6.63072e-06 318.307L-7.56291e-06 296.981L79.1577 267.874L46.6901 255.193L0.28732 272.629Z" fill="#F3F3F3"/>
<path d="M0.287314 120.936L0.287313 102.492L34.0479 90.82L0.287312 79.0043L0.287311 60.7043L46.6901 78.2838L79.1577 65.3153L-1.89553e-05 36.3523L-1.99001e-05 14.7382L102 55.661L102 72.8082L59.1887 90.82L102 108.688L102 125.835L-1.32614e-05 166.614L-1.41936e-05 145.288L79.1577 116.181L46.6901 103.5L0.287314 120.936Z" fill="#F3F3F3"/>
<path d="M102 15.8504L81.3127 15.8504L81.3127 2.69633e-05L102 2.6059e-05L102 15.8504Z" fill="#F3F3F3"/>
</svg>
